PathFileType	4	(X/Y/Z)	Patient4_TMGait_0pt4_03_left_06.trc.trc
DataRate	CameraRate	NumFrames	NumMarkers	Units	OrigDataRate	OrigDataStartFrame	OrigNumFrames
76.086956521739	76.086956521739	4	33	mm	76.086956521739	89	       141
Frame#	Time	Sacral			L.Shoulder			Chest			R.Shoulder			Neck			R.ASIS			L.ASIS			R.Thigh.Superior			R.Thigh.Lateral			R.Thigh.Inferior			R.Patella			L.Thigh.Superior			L.Thigh.Lateral			L.Thigh.Inferior			L.Patella			L.Shank.Superior			L.Shank.Lateral			L.Shank.Inferior			R.Shank.Superior			R.Shank.Lateral			R.Shank.Inferior			R.Heel			R.Midfoot.Superior			R.Midfoot.Lateral			R.Toe			L.Heel			L.Midfoot.Lateral			L.Midfoot.Superior			L.Toe			L.Elbow			L.Wrist			R.Elbow			R.Wrist			
		X1	Y1	Z1	X2	Y2	Z2	X3	Y3	Z3	X4	Y4	Z4	X5	Y5	Z5	X6	Y6	Z6	X7	Y7	Z7	X8	Y8	Z8	X9	Y9	Z9	X10	Y10	Z10	X11	Y11	Z11	X12	Y12	Z12	X13	Y13	Z13	X14	Y14	Z14	X15	Y15	Z15	X16	Y16	Z16	X17	Y17	Z17	X18	Y18	Z18	X19	Y19	Z19	X20	Y20	Z20	X21	Y21	Z21	X22	Y22	Z22	X23	Y23	Z23	X24	Y24	Z24	X25	Y25	Z25	X26	Y26	Z26	X27	Y27	Z27	X28	Y28	Z28	X29	Y29	Z29	X30	Y30	Z30	X31	Y31	Z31	X32	Y32	Z32	X33	Y33	Z33	

89	8.586571428571	827.889142060392	1001.335920071980	477.691767891100	1001.567603173988	1432.403975029911	296.713662373464	1093.752091077721	1373.056987896182	467.681209637565	991.462916111385	1444.910173830455	632.095528397813	969.579068651124	1496.769795821129	450.837554495565	1052.101452153308	945.292922748151	611.479112232603	1055.189086402228	966.395026081249	335.483858142106	1107.602204377300	747.211140158223	586.378644453689	1030.466560042796	634.968138780139	646.324040115993	1115.827527763981	584.971997603288	571.565350449935	1122.641435498691	495.975494213570	581.039032933843	1076.148820164890	740.257219790479	354.346568590819	974.831951009697	635.052234389144	284.017833280427	1051.330324564066	544.522660170832	340.233110351298	1041.186751993581	465.811399217526	337.483747626963	985.837166039051	405.815419028592	329.451838826683	858.277889642198	333.152042023781	279.948050866188	873.465882460595	203.934625424962	336.463158693837	1092.411967664750	406.973014013192	589.266228171035	1019.650603810816	305.994761082829	653.203911981243	1061.716820286745	208.324011869485	595.058721974450	928.757914456454	43.779052536269	570.596307166511	1099.432265349904	98.072301352366	606.915975556132	1011.933524389545	37.544281600659	645.524341704099	1220.011310685457	44.975932970701	635.407397005871	706.703058402469	85.809387426966	376.391399895587	775.775288769370	59.198559012012	297.294605299139	871.087886815736	103.943313018105	318.981799006809	982.859448933415	37.018511948091	293.509655951783	1024.632667667805	1084.181840961460	172.388610088101	1256.848155454809	963.942775526721	169.572198533563	924.776252391708	1110.844664459918	765.717437304869	1046.605271060945	879.359415682204	768.812064991862	
90	8.599714285714	828.065024522566	1002.078849194459	481.805176169384	1001.314091879865	1432.801852411837	299.917327887074	1094.766760087918	1373.220295580895	470.145685086689	993.978870614348	1445.324940570307	635.299427505725	970.425321436428	1497.122506102578	454.144639912687	1053.043971664170	945.502918938640	614.104145362202	1054.407897415605	966.795206737892	338.186049052975	1106.397190473432	746.379051876032	589.073730332114	1027.575159371653	634.729581363961	648.269025751865	1112.443531538593	584.215776873765	573.354557477254	1118.168284752141	495.447315859218	581.890995768163	1079.950483312217	741.944194405234	357.143460658907	982.628154056809	634.616642071545	285.997375801239	1061.915960600424	545.515187608722	342.062654220215	1052.668222253031	465.436004615502	338.225061113750	994.963220713567	405.845429483284	330.212914609870	864.988185083264	337.556717491507	280.903986848289	876.368015527678	207.667400899887	336.156503553208	1088.074424754534	406.598799733180	590.050934274648	1015.456579135770	305.594993936619	653.988941856535	1056.922691572386	208.024723973126	595.212718736086	923.364964159397	43.739015886303	570.667189941785	1094.084319365742	97.853895413535	606.975853238700	1006.557702117587	37.474465055167	645.625676789824	1214.702453583170	44.553590530987	635.535535935499	705.722004322787	96.556458119637	375.726943519948	773.327633821230	66.181253006891	296.884546247817	870.477270357894	106.400610178141	318.128720306017	977.941900140579	36.374403608639	293.550021771569	1021.838613278387	1084.201959640025	176.092187123735	1250.073631278150	955.977120758737	171.685788481745	931.719355449264	1111.096469957000	770.989494047437	1063.257586770345	885.170261960582	770.790648149251	
91	8.612857142857	827.997426057404	1002.727494446243	485.900737254639	1000.863574809700	1433.036573602246	303.040251950643	1095.728607788572	1373.159194220757	472.428765755535	996.680031349042	1445.572176900875	638.426157077838	971.295933309420	1497.346858135807	457.371022640157	1053.798133656953	945.568809387214	616.481354395494	1053.223944297168	966.992868299534	340.663486939962	1104.940799775588	745.504923464861	591.345142706930	1024.703472445270	634.503218611000	650.127014555253	1108.860462267851	583.476536907727	574.872134767402	1113.532237476632	494.926531929695	582.649064359581	1083.916361736026	743.899811009085	359.810530514875	991.056714712561	634.333851784860	287.832313448571	1073.182133375249	546.931363102233	343.884878726901	1065.000630246129	465.544363705932	339.156039348205	1005.114425089262	406.182978212772	331.069589482747	872.911245826987	342.382365188588	281.777162902371	880.219204397018	212.007474478079	335.925436080700	1083.596619740529	406.227366367128	590.806723260081	1011.130973424489	305.185153060572	654.766487784733	1052.042940983307	207.727197675144	595.361508632969	917.928460946393	43.674421786656	570.750875976711	1088.700679599445	97.634777416291	607.007927933837	1001.143076601819	37.393614707885	645.718905773374	1209.350337146216	44.159081324319	635.612854849045	705.762331504036	108.807943261513	375.063973175691	771.589472207931	74.520811367789	296.461660156117	870.522343095955	109.486792776569	317.404051979703	973.005182005793	35.565804711177	293.648565142294	1018.753767221657	1083.980556967802	179.896608514531	1242.410216994717	947.381161551770	173.622413861003	938.957466185187	1111.320243185708	776.280709231105	1080.229621839607	891.626015496200	772.486020564869	
92	8.626000000000	827.686820906640	1003.268401985324	489.939052441573	1000.232533149369	1433.110039746101	306.044664535035	1096.620463060798	1372.876767376450	474.506008075086	999.521258197534	1445.646725850195	641.435722215299	972.184155171274	1497.448891406611	460.479206517415	1054.342662915725	945.502028617618	618.602104995279	1051.643189593394	966.975348990772	342.912942350847	1103.291640576086	744.641374421646	593.161059338101	1021.976381773570	634.310099592289	651.917606634975	1105.183946491354	582.777728689501	576.120607572611	1108.847987612173	494.421902352869	583.349429956277	1087.940150068180	746.160714832917	362.330408902079	999.924888212091	634.319800756105	289.508255978574	1084.868267479204	548.867345563929	345.672245271241	1077.953740911911	466.251548679059	340.247185554522	1016.095156286026	406.919635175116	332.011383565727	881.881453370963	347.632859159458	282.568388563173	884.953413263343	216.964143338787	335.805920432566	1079.069992446162	405.863101857217	591.553173793098	1006.748165418231	304.780349432595	655.553451228962	1047.136941782640	207.441638757008	595.524947458383	912.487624749811	43.597885085807	570.856695121123	1083.318677489082	97.433997074227	607.035202766714	995.725629768283	37.311019440505	645.813770230458	1203.988924256751	43.810740984389	635.658282735079	706.882956611081	122.426950275516	374.446352572297	770.641663127745	84.172426187924	296.063125945092	871.226013517779	113.252847542580	316.859717460119	968.106573521996	34.593409447455	293.815444839109	1015.373915190882	1083.504896128010	183.808849955570	1233.799145966735	938.214419882812	175.388969867865	946.542624581200	1111.496986930603	781.543219949665	1097.460255108402	898.714031768976	773.852812791064	
